# xmcd
#
# Track frame offsets: 
#        150
#        11083
#        22154
#        32274
#        40381
#        50740
#        60314
#        71559
#        85148
#        97970
#        111134
#        120634
#        131049
#        141268
#        153865
#        168479
#        179447
#        190633
#        199899
#        211518
#
# Disc length: 2955 seconds
#
# Revision: 2
# Processed by: cddbd v1.5.2PL0 Copyright (c) Steve Scherf et al.
# Submitted via: ExactAudioCopy v1.1
#
DISCID=100b8914
DTITLE=Various Artist - Rhythm and Blues Goes Rock 'n' Roll - Vol 2 - D
DTITLE=isc 1
DYEAR=2002
DGENRE=R&B
TTITLE0=King Perry - Everything's Gonna Be Alright Tonight (mono)
TTITLE1=John Greer - I'm The Fat Man (mono)
TTITLE2=Woo Woo Moore - Something's Wrong (mono)
TTITLE3=Jimmie Nelson - Great Big Hunk Of Man (mono)
TTITLE4=Al Jackson - Let's Drink Some Whiskey (mono)
TTITLE5=Jesse Stone - Runaway (mono)
TTITLE6=Ballin' Blues Band - Hush Your Lyin' Mouth (mono)
TTITLE7=Mr. Swing - Beer Bottle Boogie (mono)
TTITLE8=Johnny Otis - Court Room Blues (mono)
TTITLE9=Earl Jackson - Woman Don't Want A Good Man No More (mono)
TTITLE10=Vivian Verson - I Want To Know (mono)
TTITLE11=Bob Kent - Oh Baby (mono)
TTITLE12=Willie Johnson - Say Baby (mono)
TTITLE13=Moohah - All Shook Out (mono)
TTITLE14=Bob Kent - Korea (mono)
TTITLE15=Mr. Swing - Gonna Bring My Baby Back (mono)
TTITLE16=Rudy Greene - Wild Life (mono)
TTITLE17=Dorthea Fleming - The Devil Is Mad (mono)
TTITLE18=Ralph Wilson - What's Shakin' (mono)
TTITLE19=Eddie Riff - My Baby's Gone Away (mono)
EXTD=YEAR: 2002
EXTT0=
EXTT1=
EXTT2=
EXTT3=
EXTT4=
EXTT5=
EXTT6=
EXTT7=
EXTT8=
EXTT9=
EXTT10=
EXTT11=
EXTT12=
EXTT13=
EXTT14=
EXTT15=
EXTT16=
EXTT17=
EXTT18=
EXTT19=
PLAYORDER=
